<svg width="24" height="24" viewBox="0 0 24 24" fill="none" xmlns="http://www.w3.org/2000/svg">
<path d="M12.65 8.15343C12.65 7.79445 12.359 7.50344 12 7.50344C11.641 7.50344 11.35 7.79445 11.35 8.15343V12.6534C11.35 13.0124 11.641 13.3034 12 13.3034H16C16.359 13.3034 16.65 13.0124 16.65 12.6534C16.65 12.2945 16.359 12.0034 16 12.0034H12.65V8.15343Z" fill="#505050"/>
<path fill-rule="evenodd" clip-rule="evenodd" d="M3 12C3 7.02944 7.02944 3 12 3C16.9706 3 21 7.02944 21 12C21 16.9706 16.9706 21 12 21C7.02944 21 3 16.9706 3 12ZM12 4.3C7.74741 4.3 4.3 7.74741 4.3 12C4.3 16.2526 7.74741 19.7 12 19.7C16.2526 19.7 19.7 16.2526 19.7 12C19.7 7.74741 16.2526 4.3 12 4.3Z" fill="#505050"/>
</svg>
